P3
64 64
255
133 1 133 3 133 5 133 7 133 9 133 11 133 13 133 15 133 17 133 19 133 21 133 23 133 25 133 27 133 29 133 31 133 33 133 35 133 37 133 39 133 41 133 43 133 45 133 47 133 49 133 51 133 53 133 55 133 57 133 59 133 61 133 63 133 65 133 67 133 69 133 71 133 73 133 75 133 77 133 79 133 81 133 83 133 85 133 87 133 89 133 91 133 93 133 95 133 97 133 99 133 101 133 103 133 105 133 107 133 109 133 111 133 113 133 115 133 117 133 119 133 121 133 123 133 125 133 127 133 129 133 131 133 133 133 135 133 137 133 139 133 141 133 143 133 145 133 147 133 149 133 151 133 153 133 155 133 157 133 159 133 161 133 163 133 165 133 167 133 169 133 171 133 173 133 175 133 177 133 179 133 181 133 183 133 185 133 187 133 189 133 191 
133 1 133 3 133 5 133 7 133 9 133 11 133 13 133 15 133 17 133 19 133 21 133 23 133 25 133 27 133 29 133 31 133 33 133 35 133 37 133 39 133 41 133 43 133 45 133 47 133 49 133 51 133 53 133 55 133 57 133 59 133 61 133 63 133 65 133 67 133 69 133 71 133 73 133 75 133 77 133 79 133 81 133 83 133 85 133 87 133 89 133 91 133 93 133 95 133 97 133 99 133 101 133 103 133 105 133 107 133 109 133 111 133 113 133 115 133 117 133 119 133 121 133 123 133 125 133 127 133 129 133 131 133 133 133 135 133 137 133 139 133 141 133 143 133 145 133 147 133 149 133 151 133 153 133 155 133 157 133 159 133 161 133 163 133 165 133 167 133 169 133 171 133 173 133 175 133 177 133 179 133 181 133 183 133 185 133 187 133 189 133 191 
133 1 133 3 133 5 133 7 133 9 133 11 133 13 133 15 133 17 133 19 133 21 133 23 133 25 133 27 133 29 133 31 133 33 133 35 133 37 133 39 133 41 133 43 133 45 133 47 133 49 133 51 133 53 133 55 133 57 133 59 133 61 133 63 133 65 133 67 133 69 133 71 133 73 133 75 133 77 133 79 133 81 133 83 133 85 133 87 133 89 133 91 133 93 133 95 133 97 133 99 133 101 133 103 133 105 133 107 133 109 133 111 133 113 133 115 133 117 133 119 133 121 133 123 133 125 133 127 133 129 133 131 133 133 133 135 133 137 133 139 133 141 133 143 133 145 133 147 133 149 133 151 133 153 133 155 133 157 133 159 133 161 133 163 133 165 133 167 133 169 133 171 133 173 133 175 133 177 133 179 133 181 133 183 133 185 133 187 133 189 133 191 
133 1 133 3 133 5 133 7 133 9 133 11 133 13 133 15 133 17 133 19 133 21 133 23 133 25 133 27 133 29 133 31 133 33 133 35 133 37 133 39 133 41 133 43 133 45 133 47 133 49 133 51 133 53 133 55 133 57 133 59 133 61 133 63 133 65 133 67 133 69 133 71 133 73 133 75 133 77 133 79 133 81 133 83 133 85 133 87 133 89 133 91 133 93 133 95 133 97 133 99 133 101 133 103 133 105 133 107 133 109 133 111 133 113 133 115 133 117 133 119 133 121 133 123 133 125 133 127 133 129 133 131 133 133 133 135 133 137 133 139 133 141 133 143 133 145 133 147 133 149 133 151 133 153 133 155 133 157 133 159 133 161 133 163 133 165 133 167 133 169 133 171 133 173 133 175 133 177 133 179 133 181 133 183 133 185 133 187 133 189 133 191 
133 1 133 3 133 5 133 7 133 9 133 11 133 13 133 15 133 17 133 19 133 21 133 23 133 25 133 27 133 29 133 31 133 33 133 35 133 37 133 39 133 41 133 43 133 45 133 47 133 49 133 51 133 53 133 55 133 57 133 59 133 61 133 63 133 65 133 67 133 69 133 71 133 73 133 75 133 77 133 79 133 81 133 83 133 85 133 87 133 89 133 91 133 93 133 95 133 97 133 99 133 101 133 103 133 105 133 107 133 109 133 111 133 113 133 115 133 117 133 119 133 121 133 123 133 125 133 127 133 129 133 131 133 133 133 135 133 137 133 139 133 141 133 143 133 145 133 147 133 149 133 151 133 153 133 155 133 157 133 159 133 161 133 163 133 165 133 167 133 169 133 171 133 173 133 175 133 177 133 179 133 181 133 183 133 185 133 187 133 189 133 191 
133 1 133 3 133 5 133 7 133 9 133 11 133 13 133 15 133 17 133 19 133 21 133 23 133 25 133 27 133 29 133 31 133 33 133 35 133 37 133 39 133 41 133 43 133 45 133 47 133 49 133 51 133 53 133 55 133 57 133 59 133 61 133 63 133 65 133 67 133 69 133 71 133 73 133 75 133 77 133 79 133 81 133 83 133 85 133 87 133 89 133 91 133 93 133 95 133 97 133 99 133 101 133 103 133 105 133 107 133 109 133 111 133 113 133 115 133 117 133 119 133 121 133 123 133 125 133 127 133 129 133 131 133 133 133 135 133 137 133 139 133 141 133 143 133 145 133 147 133 149 133 151 133 153 133 155 133 157 133 159 133 161 133 163 133 165 133 167 133 169 133 171 133 173 133 175 133 177 133 179 133 181 133 183 133 185 133 187 133 189 133 191 
133 1 133 3 133 5 133 7 133 9 133 11 133 13 133 15 133 17 133 19 133 21 133 23 133 25 133 27 133 29 133 31 133 33 133 35 133 37 133 39 133 41 133 43 133 45 133 47 133 49 133 51 133 53 133 55 133 57 133 59 133 61 133 63 133 65 133 67 133 69 133 71 133 73 133 75 133 77 133 79 133 81 133 83 133 85 133 87 133 89 133 91 133 93 133 95 133 97 133 99 133 101 133 103 133 105 133 107 133 109 133 111 133 113 133 115 133 117 133 119 133 121 133 123 133 125 133 127 133 129 133 131 133 133 133 135 133 137 133 139 133 141 133 143 133 145 133 147 133 149 133 151 133 153 133 155 133 157 133 159 133 161 133 163 133 165 133 167 133 169 133 171 133 173 133 175 133 177 133 179 133 181 133 183 133 185 133 187 133 189 133 191 
133 1 133 3 133 5 133 7 133 9 133 11 133 13 133 15 133 17 133 19 133 21 133 23 133 25 133 27 133 29 133 31 133 33 133 35 133 37 133 39 133 41 133 43 133 45 133 47 133 49 133 51 133 53 133 55 133 57 133 59 133 61 133 63 133 65 133 67 133 69 133 71 133 73 133 75 133 77 133 79 133 81 133 83 133 85 133 87 133 89 133 91 133 93 133 95 133 97 133 99 133 101 133 103 133 105 133 107 133 109 133 111 133 113 133 115 133 117 133 119 133 121 133 123 133 125 133 127 133 129 133 131 133 133 133 135 133 137 133 139 133 141 133 143 133 145 133 147 133 149 133 151 133 153 133 155 133 157 133 159 133 161 133 163 133 165 133 167 133 169 133 171 133 173 133 175 133 177 133 179 133 181 133 183 133 185 133 187 133 189 133 191 
133 1 133 3 133 5 133 7 133 9 133 11 133 13 133 15 133 17 133 19 133 21 133 23 133 25 133 27 133 29 133 31 133 33 133 35 133 37 133 39 133 41 133 43 133 45 133 47 133 49 133 51 133 53 133 55 133 57 133 59 133 61 133 63 133 65 133 67 133 69 133 71 133 73 133 75 133 77 133 79 133 81 133 83 133 85 133 87 133 89 133 91 133 93 133 95 133 97 133 99 133 101 133 103 133 105 133 107 133 109 133 111 133 113 133 115 133 117 133 119 133 121 133 123 133 125 133 127 133 129 133 131 133 133 133 135 133 137 133 139 133 141 133 143 133 145 133 147 133 149 133 151 133 153 133 155 133 157 133 159 133 161 133 163 133 165 133 167 133 169 133 171 133 173 133 175 133 177 133 179 133 181 133 183 133 185 133 187 133 189 133 191 
133 1 133 3 133 5 133 7 133 9 133 11 133 13 133 15 133 17 133 19 133 21 133 23 133 25 133 27 133 29 133 31 133 33 133 35 133 37 133 39 133 41 133 43 133 45 133 47 133 49 133 51 133 53 133 55 133 57 133 59 133 61 133 63 133 65 133 67 133 69 133 71 133 73 133 75 133 77 133 79 133 81 133 83 133 85 133 87 133 89 133 91 133 93 133 95 133 97 133 99 133 101 133 103 133 105 133 107 133 109 133 111 133 113 133 115 133 117 133 119 133 121 133 123 133 125 133 127 133 129 133 131 133 133 133 135 133 137 133 139 133 141 133 143 133 145 133 147 133 149 133 151 133 153 133 155 133 157 133 159 133 161 133 163 133 165 133 167 133 169 133 171 133 173 133 175 133 177 133 179 133 181 133 183 133 185 133 187 133 189 133 191 
133 1 133 3 133 5 133 7 133 9 133 11 133 13 133 15 133 17 133 19 133 21 133 23 133 25 133 27 133 29 133 31 133 33 133 35 133 37 133 39 133 41 133 43 133 45 133 47 133 49 133 51 133 53 133 55 133 57 133 59 133 61 133 63 133 65 133 67 133 69 133 71 133 73 133 75 133 77 133 79 133 81 133 83 133 85 133 87 133 89 133 91 133 93 133 95 133 97 133 99 133 101 133 103 133 105 133 107 133 109 133 111 133 113 133 115 133 117 133 119 133 121 133 123 133 125 133 127 133 129 133 131 133 133 133 135 133 137 133 139 133 141 133 143 133 145 133 147 133 149 133 151 133 153 133 155 133 157 133 159 133 161 133 163 133 165 133 167 133 169 133 171 133 173 133 175 133 177 133 179 133 181 133 183 133 185 133 187 133 189 133 191 
133 1 133 3 133 5 133 7 133 9 133 11 133 13 133 15 133 17 133 19 133 21 133 23 133 25 133 27 133 29 133 31 133 33 133 35 133 37 133 39 133 41 133 43 133 45 133 47 133 49 133 51 133 53 133 55 133 57 133 59 133 61 133 63 133 65 133 67 133 69 133 71 133 73 133 75 133 77 133 79 133 81 133 83 133 85 133 87 133 89 133 91 133 93 133 95 133 97 133 99 133 101 133 103 133 105 133 107 133 109 133 111 133 113 133 115 133 117 133 119 133 121 133 123 133 125 133 127 133 129 133 131 133 133 133 135 133 137 133 139 133 141 133 143 133 145 133 147 133 149 133 151 133 153 133 155 133 157 133 159 133 161 133 163 133 165 133 167 133 169 133 171 133 173 133 175 133 177 133 179 133 181 133 183 133 185 133 187 133 189 133 191 
133 1 133 3 133 5 133 7 133 9 133 11 133 13 133 15 133 17 133 19 133 21 133 23 133 25 133 27 133 29 133 31 133 33 133 35 133 37 133 39 133 41 133 43 133 45 133 47 133 49 133 51 133 53 133 55 133 57 133 59 133 61 133 63 133 65 133 67 133 69 133 71 133 73 133 75 133 77 133 79 133 81 133 83 133 85 133 87 133 89 133 91 133 93 133 95 133 97 133 99 133 101 133 103 133 105 133 107 133 109 133 111 133 113 133 115 133 117 133 119 133 121 133 123 133 125 133 127 133 129 133 131 133 133 133 135 133 137 133 139 133 141 133 143 133 145 133 147 133 149 133 151 133 153 133 155 133 157 133 159 133 161 133 163 133 165 133 167 133 169 133 171 133 173 133 175 133 177 133 179 133 181 133 183 133 185 133 187 133 189 133 191 
133 1 133 3 133 5 133 7 133 9 133 11 133 13 133 15 133 17 133 19 133 21 133 23 133 25 133 27 133 29 133 31 133 33 133 35 133 37 133 39 133 41 133 43 133 45 133 47 133 49 133 51 133 53 133 55 133 57 133 59 133 61 133 63 133 65 133 67 133 69 133 71 133 73 133 75 133 77 133 79 133 81 133 83 133 85 133 87 133 89 133 91 133 93 133 95 133 97 133 99 133 101 133 103 133 105 133 107 133 109 133 111 133 113 133 115 133 117 133 119 133 121 133 123 133 125 133 127 133 129 133 131 133 133 133 135 133 137 133 139 133 141 133 143 133 145 133 147 133 149 133 151 133 153 133 155 133 157 133 159 133 161 133 163 133 165 133 167 133 169 133 171 133 173 133 175 133 177 133 179 133 181 133 183 133 185 133 187 133 189 133 191 
133 1 133 3 133 5 133 7 133 9 133 11 133 13 133 15 133 17 133 19 133 21 133 23 133 25 133 27 133 29 133 31 133 33 133 35 133 37 133 39 133 41 133 43 133 45 133 47 133 49 133 51 133 53 133 55 133 57 133 59 133 61 133 63 133 65 133 67 133 69 133 71 133 73 133 75 133 77 133 79 133 81 133 83 133 85 133 87 133 89 133 91 133 93 133 95 133 97 133 99 133 101 133 103 133 105 133 107 133 109 133 111 133 113 133 115 133 117 133 119 133 121 133 123 133 125 133 127 133 129 133 131 133 133 133 135 133 137 133 139 133 141 133 143 133 145 133 147 133 149 133 151 133 153 133 155 133 157 133 159 133 161 133 163 133 165 133 167 133 169 133 171 133 173 133 175 133 177 133 179 133 181 133 183 133 185 133 187 133 189 133 191 
133 1 133 3 133 5 133 7 133 9 133 11 133 13 133 15 133 17 133 19 133 21 133 23 133 25 133 27 133 29 133 31 133 33 133 35 133 37 133 39 133 41 133 43 133 45 133 47 133 49 133 51 133 53 133 55 133 57 133 59 133 61 133 63 133 65 133 67 133 69 133 71 133 73 133 75 133 77 133 79 133 81 133 83 133 85 133 87 133 89 133 91 133 93 133 95 133 97 133 99 133 101 133 103 133 105 133 107 133 109 133 111 133 113 133 115 133 117 133 119 133 121 133 123 133 125 133 127 133 129 133 131 133 133 133 135 133 137 133 139 133 141 133 143 133 145 133 147 133 149 133 151 133 153 133 155 133 157 133 159 133 161 133 163 133 165 133 167 133 169 133 171 133 173 133 175 133 177 133 179 133 181 133 183 133 185 133 187 133 189 133 191 
133 1 133 3 133 5 133 7 133 9 133 11 133 13 133 15 133 17 133 19 133 21 133 23 133 25 133 27 133 29 133 31 133 33 133 35 133 37 133 39 133 41 133 43 133 45 133 47 133 49 133 51 133 53 133 55 133 57 133 59 133 61 133 63 133 65 133 67 133 69 133 71 133 73 133 75 133 77 133 79 133 81 133 83 133 85 133 87 133 89 133 91 133 93 133 95 133 97 133 99 133 101 133 103 133 105 133 107 133 109 133 111 133 113 133 115 133 117 133 119 133 121 133 123 133 125 133 127 133 129 133 131 133 133 133 135 133 137 133 139 133 141 133 143 133 145 133 147 133 149 133 151 133 153 133 155 133 157 133 159 133 161 133 163 133 165 133 167 133 169 133 171 133 173 133 175 133 177 133 179 133 181 133 183 133 185 133 187 133 189 133 191 
133 1 133 3 133 5 133 7 133 9 133 11 133 13 133 15 133 17 133 19 133 21 133 23 133 25 133 27 133 29 133 31 133 33 133 35 133 37 133 39 133 41 133 43 133 45 133 47 133 49 133 51 133 53 133 55 133 57 133 59 133 61 133 63 133 65 133 67 133 69 133 71 133 73 133 75 133 77 133 79 133 81 133 83 133 85 133 87 133 89 133 91 133 93 133 95 133 97 133 99 133 101 133 103 133 105 133 107 133 109 133 111 133 113 133 115 133 117 133 119 133 121 133 123 133 125 133 127 133 129 133 131 133 133 133 135 133 137 133 139 133 141 133 143 133 145 133 147 133 149 133 151 133 153 133 155 133 157 133 159 133 161 133 163 133 165 133 167 133 169 133 171 133 173 133 175 133 177 133 179 133 181 133 183 133 185 133 187 133 189 133 191 
133 1 133 3 133 5 133 7 133 9 133 11 133 13 133 15 133 17 133 19 133 21 133 23 133 25 133 27 133 29 133 31 133 33 133 35 133 37 133 39 133 41 133 43 133 45 133 47 133 49 133 51 133 53 133 55 133 57 133 59 133 61 133 63 133 65 133 67 133 69 133 71 133 73 133 75 133 77 133 79 133 81 133 83 133 85 133 87 133 89 133 91 133 93 133 95 133 97 133 99 133 101 133 103 133 105 133 107 133 109 133 111 133 113 133 115 133 117 133 119 133 121 133 123 133 125 133 127 133 129 133 131 133 133 133 135 133 137 133 139 133 141 133 143 133 145 133 147 133 149 133 151 133 153 133 155 133 157 133 159 133 161 133 163 133 165 133 167 133 169 133 171 133 173 133 175 133 177 133 179 133 181 133 183 133 185 133 187 133 189 133 191 
133 1 133 3 133 5 133 7 133 9 133 11 133 13 133 15 133 17 133 19 133 21 133 23 133 25 133 27 133 29 133 31 133 33 133 35 133 37 133 39 133 41 133 43 133 45 133 47 133 49 133 51 133 53 133 55 133 57 133 59 133 61 133 63 133 65 133 67 133 69 133 71 133 73 133 75 133 77 133 79 133 81 133 83 133 85 133 87 133 89 133 91 133 93 133 95 133 97 133 99 133 101 133 103 133 105 133 107 133 109 133 111 133 113 133 115 133 117 133 119 133 121 133 123 133 125 133 127 133 129 133 131 133 133 133 135 133 137 133 139 133 141 133 143 133 145 133 147 133 149 133 151 133 153 133 155 133 157 133 159 133 161 133 163 133 165 133 167 133 169 133 171 133 173 133 175 133 177 133 179 133 181 133 183 133 185 133 187 133 189 133 191 
133 1 133 3 133 5 133 7 133 9 133 11 133 13 133 15 133 17 133 19 133 21 133 23 133 25 133 27 133 29 133 31 133 33 133 35 133 37 133 39 133 41 133 43 133 45 133 47 133 49 133 51 133 53 133 55 133 57 133 59 133 61 133 63 133 65 133 67 133 69 133 71 133 73 133 75 133 77 133 79 133 81 133 83 133 85 133 87 133 89 133 91 133 93 133 95 133 97 133 99 133 101 133 103 133 105 133 107 133 109 133 111 133 113 133 115 133 117 133 119 133 121 133 123 133 125 133 127 133 129 133 131 133 133 133 135 133 137 133 139 133 141 133 143 133 145 133 147 133 149 133 151 133 153 133 155 133 157 133 159 133 161 133 163 133 165 133 167 133 169 133 171 133 173 133 175 133 177 133 179 133 181 133 183 133 185 133 187 133 189 133 191 
133 1 133 3 133 5 133 7 133 9 133 11 133 13 133 15 133 17 133 19 133 21 133 23 133 25 133 27 133 29 133 31 133 33 133 35 133 37 133 39 133 41 133 43 133 45 133 47 133 49 133 51 133 53 133 55 133 57 133 59 133 61 133 63 133 65 133 67 133 69 133 71 133 73 133 75 133 77 133 79 133 81 133 83 133 85 133 87 133 89 133 91 133 93 133 95 133 97 133 99 133 101 133 103 133 105 133 107 133 109 133 111 133 113 133 115 133 117 133 119 133 121 133 123 133 125 133 127 133 129 133 131 133 133 133 135 133 137 133 139 133 141 133 143 133 145 133 147 133 149 133 151 133 153 133 155 133 157 133 159 133 161 133 163 133 165 133 167 133 169 133 171 133 173 133 175 133 177 133 179 133 181 133 183 133 185 133 187 133 189 133 191 
133 1 133 3 133 5 133 7 133 9 133 11 133 13 133 15 133 17 133 19 133 21 133 23 133 25 133 27 133 29 133 31 133 33 133 35 133 37 133 39 133 41 133 43 133 45 133 47 133 49 133 51 133 53 133 55 133 57 133 59 133 61 133 63 133 65 133 67 133 69 133 71 133 73 133 75 133 77 133 79 133 81 133 83 133 85 133 87 133 89 133 91 133 93 133 95 133 97 133 99 133 101 133 103 133 105 133 107 133 109 133 111 133 113 133 115 133 117 133 119 133 121 133 123 133 125 133 127 133 129 133 131 133 133 133 135 133 137 133 139 133 141 133 143 133 145 133 147 133 149 133 151 133 153 133 155 133 157 133 159 133 161 133 163 133 165 133 167 133 169 133 171 133 173 133 175 133 177 133 179 133 181 133 183 133 185 133 187 133 189 133 191 
133 1 133 3 133 5 133 7 133 9 133 11 133 13 133 15 133 17 133 19 133 21 133 23 133 25 133 27 133 29 133 31 133 33 133 35 133 37 133 39 133 41 133 43 133 45 133 47 133 49 133 51 133 53 133 55 133 57 133 59 133 61 133 63 133 65 133 67 133 69 133 71 133 73 133 75 133 77 133 79 133 81 133 83 133 85 133 87 133 89 133 91 133 93 133 95 133 97 133 99 133 101 133 103 133 105 133 107 133 109 133 111 133 113 133 115 133 117 133 119 133 121 133 123 133 125 133 127 133 129 133 131 133 133 133 135 133 137 133 139 133 141 133 143 133 145 133 147 133 149 133 151 133 153 133 155 133 157 133 159 133 161 133 163 133 165 133 167 133 169 133 171 133 173 133 175 133 177 133 179 133 181 133 183 133 185 133 187 133 189 133 191 
133 1 133 3 133 5 133 7 133 9 133 11 133 13 133 15 133 17 133 19 133 21 133 23 133 25 133 27 133 29 133 31 133 33 133 35 133 37 133 39 133 41 133 43 133 45 133 47 133 49 133 51 133 53 133 55 133 57 133 59 133 61 133 63 133 65 133 67 133 69 133 71 133 73 133 75 133 77 133 79 133 81 133 83 133 85 133 87 133 89 133 91 133 93 133 95 133 97 133 99 133 101 133 103 133 105 133 107 133 109 133 111 133 113 133 115 133 117 133 119 133 121 133 123 133 125 133 127 133 129 133 131 133 133 133 135 133 137 133 139 133 141 133 143 133 145 133 147 133 149 133 151 133 153 133 155 133 157 133 159 133 161 133 163 133 165 133 167 133 169 133 171 133 173 133 175 133 177 133 179 133 181 133 183 133 185 133 187 133 189 133 191 
133 1 133 3 133 5 133 7 133 9 133 11 133 13 133 15 133 17 133 19 133 21 133 23 133 25 133 27 133 29 133 31 133 33 133 35 133 37 133 39 133 41 133 43 133 45 133 47 133 49 133 51 133 53 133 55 133 57 133 59 133 61 133 63 133 65 133 67 133 69 133 71 133 73 133 75 133 77 133 79 133 81 133 83 133 85 133 87 133 89 133 91 133 93 133 95 133 97 133 99 133 101 133 103 133 105 133 107 133 109 133 111 133 113 133 115 133 117 133 119 133 121 133 123 133 125 133 127 133 129 133 131 133 133 133 135 133 137 133 139 133 141 133 143 133 145 133 147 133 149 133 151 133 153 133 155 133 157 133 159 133 161 133 163 133 165 133 167 133 169 133 171 133 173 133 175 133 177 133 179 133 181 133 183 133 185 133 187 133 189 133 191 
133 1 133 3 133 5 133 7 133 9 133 11 133 13 133 15 133 17 133 19 133 21 133 23 133 25 133 27 133 29 133 31 133 33 133 35 133 37 133 39 133 41 133 43 133 45 133 47 133 49 133 51 133 53 133 55 133 57 133 59 133 61 133 63 133 65 133 67 133 69 133 71 133 73 133 75 133 77 133 79 133 81 133 83 133 85 133 87 133 89 133 91 133 93 133 95 133 97 133 99 133 101 133 103 133 105 133 107 133 109 133 111 133 113 133 115 133 117 133 119 133 121 133 123 133 125 133 127 133 129 133 131 133 133 133 135 133 137 133 139 133 141 133 143 133 145 133 147 133 149 133 151 133 153 133 155 133 157 133 159 133 161 133 163 133 165 133 167 133 169 133 171 133 173 133 175 133 177 133 179 133 181 133 183 133 185 133 187 133 189 133 191 
133 1 133 3 133 5 133 7 133 9 133 11 133 13 133 15 133 17 133 19 133 21 133 23 133 25 133 27 133 29 133 31 133 33 133 35 133 37 133 39 133 41 133 43 133 45 133 47 133 49 133 51 133 53 133 55 133 57 133 59 133 61 133 63 133 65 133 67 133 69 133 71 133 73 133 75 133 77 133 79 133 81 133 83 133 85 133 87 133 89 133 91 133 93 133 95 133 97 133 99 133 101 133 103 133 105 133 107 133 109 133 111 133 113 133 115 133 117 133 119 133 121 133 123 133 125 133 127 133 129 133 131 133 133 133 135 133 137 133 139 133 141 133 143 133 145 133 147 133 149 133 151 133 153 133 155 133 157 133 159 133 161 133 163 133 165 133 167 133 169 133 171 133 173 133 175 133 177 133 179 133 181 133 183 133 185 133 187 133 189 133 191 
133 1 133 3 133 5 133 7 133 9 133 11 133 13 133 15 133 17 133 19 133 21 133 23 133 25 133 27 133 29 133 31 133 33 133 35 133 37 133 39 133 41 133 43 133 45 133 47 133 49 133 51 133 53 133 55 133 57 133 59 133 61 133 63 133 65 133 67 133 69 133 71 133 73 133 75 133 77 133 79 133 81 133 83 133 85 133 87 133 89 133 91 133 93 133 95 133 97 133 99 133 101 133 103 133 105 133 107 133 109 133 111 133 113 133 115 133 117 133 119 133 121 133 123 133 125 133 127 133 129 133 131 133 133 133 135 133 137 133 139 133 141 133 143 133 145 133 147 133 149 133 151 133 153 133 155 133 157 133 159 133 161 133 163 133 165 133 167 133 169 133 171 133 173 133 175 133 177 133 179 133 181 133 183 133 185 133 187 133 189 133 191 
133 1 133 3 133 5 133 7 133 9 133 11 133 13 133 15 133 17 133 19 133 21 133 23 133 25 133 27 133 29 133 31 133 33 133 35 133 37 133 39 133 41 133 43 133 45 133 47 133 49 133 51 133 53 133 55 133 57 133 59 133 61 133 63 133 65 133 67 133 69 133 71 133 73 133 75 133 77 133 79 133 81 133 83 133 85 133 87 133 89 133 91 133 93 133 95 133 97 133 99 133 101 133 103 133 105 133 107 133 109 133 111 133 113 133 115 133 117 133 119 133 121 133 123 133 125 133 127 133 129 133 131 133 133 133 135 133 137 133 139 133 141 133 143 133 145 133 147 133 149 133 151 133 153 133 155 133 157 133 159 133 161 133 163 133 165 133 167 133 169 133 171 133 173 133 175 133 177 133 179 133 181 133 183 133 185 133 187 133 189 133 191 
133 1 133 3 133 5 133 7 133 9 133 11 133 13 133 15 133 17 133 19 133 21 133 23 133 25 133 27 133 29 133 31 133 33 133 35 133 37 133 39 133 41 133 43 133 45 133 47 133 49 133 51 133 53 133 55 133 57 133 59 133 61 133 63 133 65 133 67 133 69 133 71 133 73 133 75 133 77 133 79 133 81 133 83 133 85 133 87 133 89 133 91 133 93 133 95 133 97 133 99 133 101 133 103 133 105 133 107 133 109 133 111 133 113 133 115 133 117 133 119 133 121 133 123 133 125 133 127 133 129 133 131 133 133 133 135 133 137 133 139 133 141 133 143 133 145 133 147 133 149 133 151 133 153 133 155 133 157 133 159 133 161 133 163 133 165 133 167 133 169 133 171 133 173 133 175 133 177 133 179 133 181 133 183 133 185 133 187 133 189 133 191 
133 1 133 3 133 5 133 7 133 9 133 11 133 13 133 15 133 17 133 19 133 21 133 23 133 25 133 27 133 29 133 31 133 33 133 35 133 37 133 39 133 41 133 43 133 45 133 47 133 49 133 51 133 53 133 55 133 57 133 59 133 61 133 63 133 65 133 67 133 69 133 71 133 73 133 75 133 77 133 79 133 81 133 83 133 85 133 87 133 89 133 91 133 93 133 95 133 97 133 99 133 101 133 103 133 105 133 107 133 109 133 111 133 113 133 115 133 117 133 119 133 121 133 123 133 125 133 127 133 129 133 131 133 133 133 135 133 137 133 139 133 141 133 143 133 145 133 147 133 149 133 151 133 153 133 155 133 157 133 159 133 161 133 163 133 165 133 167 133 169 133 171 133 173 133 175 133 177 133 179 133 181 133 183 133 185 133 187 133 189 133 191 
133 1 133 3 133 5 133 7 133 9 133 11 133 13 133 15 133 17 133 19 133 21 133 23 133 25 133 27 133 29 133 31 133 33 133 35 133 37 133 39 133 41 133 43 133 45 133 47 133 49 133 51 133 53 133 55 133 57 133 59 133 61 133 63 133 65 133 67 133 69 133 71 133 73 133 75 133 77 133 79 133 81 133 83 133 85 133 87 133 89 133 91 133 93 133 95 133 97 133 99 133 101 133 103 133 105 133 107 133 109 133 111 133 113 133 115 133 117 133 119 133 121 133 123 133 125 133 127 133 129 133 131 133 133 133 135 133 137 133 139 133 141 133 143 133 145 133 147 133 149 133 151 133 153 133 155 133 157 133 159 133 161 133 163 133 165 133 167 133 169 133 171 133 173 133 175 133 177 133 179 133 181 133 183 133 185 133 187 133 189 133 191 
133 1 133 3 133 5 133 7 133 9 133 11 133 13 133 15 133 17 133 19 133 21 133 23 133 25 133 27 133 29 133 31 133 33 133 35 133 37 133 39 133 41 133 43 133 45 133 47 133 49 133 51 133 53 133 55 133 57 133 59 133 61 133 63 133 65 133 67 133 69 133 71 133 73 133 75 133 77 133 79 133 81 133 83 133 85 133 87 133 89 133 91 133 93 133 95 133 97 133 99 133 101 133 103 133 105 133 107 133 109 133 111 133 113 133 115 133 117 133 119 133 121 133 123 133 125 133 127 133 129 133 131 133 133 133 135 133 137 133 139 133 141 133 143 133 145 133 147 133 149 133 151 133 153 133 155 133 157 133 159 133 161 133 163 133 165 133 167 133 169 133 171 133 173 133 175 133 177 133 179 133 181 133 183 133 185 133 187 133 189 133 191 
133 1 133 3 133 5 133 7 133 9 133 11 133 13 133 15 133 17 133 19 133 21 133 23 133 25 133 27 133 29 133 31 133 33 133 35 133 37 133 39 133 41 133 43 133 45 133 47 133 49 133 51 133 53 133 55 133 57 133 59 133 61 133 63 133 65 133 67 133 69 133 71 133 73 133 75 133 77 133 79 133 81 133 83 133 85 133 87 133 89 133 91 133 93 133 95 133 97 133 99 133 101 133 103 133 105 133 107 133 109 133 111 133 113 133 115 133 117 133 119 133 121 133 123 133 125 133 127 133 129 133 131 133 133 133 135 133 137 133 139 133 141 133 143 133 145 133 147 133 149 133 151 133 153 133 155 133 157 133 159 133 161 133 163 133 165 133 167 133 169 133 171 133 173 133 175 133 177 133 179 133 181 133 183 133 185 133 187 133 189 133 191 
133 1 133 3 133 5 133 7 133 9 133 11 133 13 133 15 133 17 133 19 133 21 133 23 133 25 133 27 133 29 133 31 133 33 133 35 133 37 133 39 133 41 133 43 133 45 133 47 133 49 133 51 133 53 133 55 133 57 133 59 133 61 133 63 133 65 133 67 133 69 133 71 133 73 133 75 133 77 133 79 133 81 133 83 133 85 133 87 133 89 133 91 133 93 133 95 133 97 133 99 133 101 133 103 133 105 133 107 133 109 133 111 133 113 133 115 133 117 133 119 133 121 133 123 133 125 133 127 133 129 133 131 133 133 133 135 133 137 133 139 133 141 133 143 133 145 133 147 133 149 133 151 133 153 133 155 133 157 133 159 133 161 133 163 133 165 133 167 133 169 133 171 133 173 133 175 133 177 133 179 133 181 133 183 133 185 133 187 133 189 133 191 
133 1 133 3 133 5 133 7 133 9 133 11 133 13 133 15 133 17 133 19 133 21 133 23 133 25 133 27 133 29 133 31 133 33 133 35 133 37 133 39 133 41 133 43 133 45 133 47 133 49 133 51 133 53 133 55 133 57 133 59 133 61 133 63 133 65 133 67 133 69 133 71 133 73 133 75 133 77 133 79 133 81 133 83 133 85 133 87 133 89 133 91 133 93 133 95 133 97 133 99 133 101 133 103 133 105 133 107 133 109 133 111 133 113 133 115 133 117 133 119 133 121 133 123 133 125 133 127 133 129 133 131 133 133 133 135 133 137 133 139 133 141 133 143 133 145 133 147 133 149 133 151 133 153 133 155 133 157 133 159 133 161 133 163 133 165 133 167 133 169 133 171 133 173 133 175 133 177 133 179 133 181 133 183 133 185 133 187 133 189 133 191 
133 1 133 3 133 5 133 7 133 9 133 11 133 13 133 15 133 17 133 19 133 21 133 23 133 25 133 27 133 29 133 31 133 33 133 35 133 37 133 39 133 41 133 43 133 45 133 47 133 49 133 51 133 53 133 55 133 57 133 59 133 61 133 63 133 65 133 67 133 69 133 71 133 73 133 75 133 77 133 79 133 81 133 83 133 85 133 87 133 89 133 91 133 93 133 95 133 97 133 99 133 101 133 103 133 105 133 107 133 109 133 111 133 113 133 115 133 117 133 119 133 121 133 123 133 125 133 127 133 129 133 131 133 133 133 135 133 137 133 139 133 141 133 143 133 145 133 147 133 149 133 151 133 153 133 155 133 157 133 159 133 161 133 163 133 165 133 167 133 169 133 171 133 173 133 175 133 177 133 179 133 181 133 183 133 185 133 187 133 189 133 191 
133 1 133 3 133 5 133 7 133 9 133 11 133 13 133 15 133 17 133 19 133 21 133 23 133 25 133 27 133 29 133 31 133 33 133 35 133 37 133 39 133 41 133 43 133 45 133 47 133 49 133 51 133 53 133 55 133 57 133 59 133 61 133 63 133 65 133 67 133 69 133 71 133 73 133 75 133 77 133 79 133 81 133 83 133 85 133 87 133 89 133 91 133 93 133 95 133 97 133 99 133 101 133 103 133 105 133 107 133 109 133 111 133 113 133 115 133 117 133 119 133 121 133 123 133 125 133 127 133 129 133 131 133 133 133 135 133 137 133 139 133 141 133 143 133 145 133 147 133 149 133 151 133 153 133 155 133 157 133 159 133 161 133 163 133 165 133 167 133 169 133 171 133 173 133 175 133 177 133 179 133 181 133 183 133 185 133 187 133 189 133 191 
133 1 133 3 133 5 133 7 133 9 133 11 133 13 133 15 133 17 133 19 133 21 133 23 133 25 133 27 133 29 133 31 133 33 133 35 133 37 133 39 133 41 133 43 133 45 133 47 133 49 133 51 133 53 133 55 133 57 133 59 133 61 133 63 133 65 133 67 133 69 133 71 133 73 133 75 133 77 133 79 133 81 133 83 133 85 133 87 133 89 133 91 133 93 133 95 133 97 133 99 133 101 133 103 133 105 133 107 133 109 133 111 133 113 133 115 133 117 133 119 133 121 133 123 133 125 133 127 133 129 133 131 133 133 133 135 133 137 133 139 133 141 133 143 133 145 133 147 133 149 133 151 133 153 133 155 133 157 133 159 133 161 133 163 133 165 133 167 133 169 133 171 133 173 133 175 133 177 133 179 133 181 133 183 133 185 133 187 133 189 133 191 
133 1 133 3 133 5 133 7 133 9 133 11 133 13 133 15 133 17 133 19 133 21 133 23 133 25 133 27 133 29 133 31 133 33 133 35 133 37 133 39 133 41 133 43 133 45 133 47 133 49 133 51 133 53 133 55 133 57 133 59 133 61 133 63 133 65 133 67 133 69 133 71 133 73 133 75 133 77 133 79 133 81 133 83 133 85 133 87 133 89 133 91 133 93 133 95 133 97 133 99 133 101 133 103 133 105 133 107 133 109 133 111 133 113 133 115 133 117 133 119 133 121 133 123 133 125 133 127 133 129 133 131 133 133 133 135 133 137 133 139 133 141 133 143 133 145 133 147 133 149 133 151 133 153 133 155 133 157 133 159 133 161 133 163 133 165 133 167 133 169 133 171 133 173 133 175 133 177 133 179 133 181 133 183 133 185 133 187 133 189 133 191 
133 1 133 3 133 5 133 7 133 9 133 11 133 13 133 15 133 17 133 19 133 21 133 23 133 25 133 27 133 29 133 31 133 33 133 35 133 37 133 39 133 41 133 43 133 45 133 47 133 49 133 51 133 53 133 55 133 57 133 59 133 61 133 63 133 65 133 67 133 69 133 71 133 73 133 75 133 77 133 79 133 81 133 83 133 85 133 87 133 89 133 91 133 93 133 95 133 97 133 99 133 101 133 103 133 105 133 107 133 109 133 111 133 113 133 115 133 117 133 119 133 121 133 123 133 125 133 127 133 129 133 131 133 133 133 135 133 137 133 139 133 141 133 143 133 145 133 147 133 149 133 151 133 153 133 155 133 157 133 159 133 161 133 163 133 165 133 167 133 169 133 171 133 173 133 175 133 177 133 179 133 181 133 183 133 185 133 187 133 189 133 191 
133 1 133 3 133 5 133 7 133 9 133 11 133 13 133 15 133 17 133 19 133 21 133 23 133 25 133 27 133 29 133 31 133 33 133 35 133 37 133 39 133 41 133 43 133 45 133 47 133 49 133 51 133 53 133 55 133 57 133 59 133 61 133 63 133 65 133 67 133 69 133 71 133 73 133 75 133 77 133 79 133 81 133 83 133 85 133 87 133 89 133 91 133 93 133 95 133 97 133 99 133 101 133 103 133 105 133 107 133 109 133 111 133 113 133 115 133 117 133 119 133 121 133 123 133 125 133 127 133 129 133 131 133 133 133 135 133 137 133 139 133 141 133 143 133 145 133 147 133 149 133 151 133 153 133 155 133 157 133 159 133 161 133 163 133 165 133 167 133 169 133 171 133 173 133 175 133 177 133 179 133 181 133 183 133 185 133 187 133 189 133 191 
133 1 133 3 133 5 133 7 133 9 133 11 133 13 133 15 133 17 133 19 133 21 133 23 133 25 133 27 133 29 133 31 133 33 133 35 133 37 133 39 133 41 133 43 133 45 133 47 133 49 133 51 133 53 133 55 133 57 133 59 133 61 133 63 133 65 133 67 133 69 133 71 133 73 133 75 133 77 133 79 133 81 133 83 133 85 133 87 133 89 133 91 133 93 133 95 133 97 133 99 133 101 133 103 133 105 133 107 133 109 133 111 133 113 133 115 133 117 133 119 133 121 133 123 133 125 133 127 133 129 133 131 133 133 133 135 133 137 133 139 133 141 133 143 133 145 133 147 133 149 133 151 133 153 133 155 133 157 133 159 133 161 133 163 133 165 133 167 133 169 133 171 133 173 133 175 133 177 133 179 133 181 133 183 133 185 133 187 133 189 133 191 
133 1 133 3 133 5 133 7 133 9 133 11 133 13 133 15 133 17 133 19 133 21 133 23 133 25 133 27 133 29 133 31 133 33 133 35 133 37 133 39 133 41 133 43 133 45 133 47 133 49 133 51 133 53 133 55 133 57 133 59 133 61 133 63 133 65 133 67 133 69 133 71 133 73 133 75 133 77 133 79 133 81 133 83 133 85 133 87 133 89 133 91 133 93 133 95 133 97 133 99 133 101 133 103 133 105 133 107 133 109 133 111 133 113 133 115 133 117 133 119 133 121 133 123 133 125 133 127 133 129 133 131 133 133 133 135 133 137 133 139 133 141 133 143 133 145 133 147 133 149 133 151 133 153 133 155 133 157 133 159 133 161 133 163 133 165 133 167 133 169 133 171 133 173 133 175 133 177 133 179 133 181 133 183 133 185 133 187 133 189 133 191 
133 1 133 3 133 5 133 7 133 9 133 11 133 13 133 15 133 17 133 19 133 21 133 23 133 25 133 27 133 29 133 31 133 33 133 35 133 37 133 39 133 41 133 43 133 45 133 47 133 49 133 51 133 53 133 55 133 57 133 59 133 61 133 63 133 65 133 67 133 69 133 71 133 73 133 75 133 77 133 79 133 81 133 83 133 85 133 87 133 89 133 91 133 93 133 95 133 97 133 99 133 101 133 103 133 105 133 107 133 109 133 111 133 113 133 115 133 117 133 119 133 121 133 123 133 125 133 127 133 129 133 131 133 133 133 135 133 137 133 139 133 141 133 143 133 145 133 147 133 149 133 151 133 153 133 155 133 157 133 159 133 161 133 163 133 165 133 167 133 169 133 171 133 173 133 175 133 177 133 179 133 181 133 183 133 185 133 187 133 189 133 191 
133 1 133 3 133 5 133 7 133 9 133 11 133 13 133 15 133 17 133 19 133 21 133 23 133 25 133 27 133 29 133 31 133 33 133 35 133 37 133 39 133 41 133 43 133 45 133 47 133 49 133 51 133 53 133 55 133 57 133 59 133 61 133 63 133 65 133 67 133 69 133 71 133 73 133 75 133 77 133 79 133 81 133 83 133 85 133 87 133 89 133 91 133 93 133 95 133 97 133 99 133 101 133 103 133 105 133 107 133 109 133 111 133 113 133 115 133 117 133 119 133 121 133 123 133 125 133 127 133 129 133 131 133 133 133 135 133 137 133 139 133 141 133 143 133 145 133 147 133 149 133 151 133 153 133 155 133 157 133 159 133 161 133 163 133 165 133 167 133 169 133 171 133 173 133 175 133 177 133 179 133 181 133 183 133 185 133 187 133 189 133 191 
133 1 133 3 133 5 133 7 133 9 133 11 133 13 133 15 133 17 133 19 133 21 133 23 133 25 133 27 133 29 133 31 133 33 133 35 133 37 133 39 133 41 133 43 133 45 133 47 133 49 133 51 133 53 133 55 133 57 133 59 133 61 133 63 133 65 133 67 133 69 133 71 133 73 133 75 133 77 133 79 133 81 133 83 133 85 133 87 133 89 133 91 133 93 133 95 133 97 133 99 133 101 133 103 133 105 133 107 133 109 133 111 133 113 133 115 133 117 133 119 133 121 133 123 133 125 133 127 133 129 133 131 133 133 133 135 133 137 133 139 133 141 133 143 133 145 133 147 133 149 133 151 133 153 133 155 133 157 133 159 133 161 133 163 133 165 133 167 133 169 133 171 133 173 133 175 133 177 133 179 133 181 133 183 133 185 133 187 133 189 133 191 
133 1 133 3 133 5 133 7 133 9 133 11 133 13 133 15 133 17 133 19 133 21 133 23 133 25 133 27 133 29 133 31 133 33 133 35 133 37 133 39 133 41 133 43 133 45 133 47 133 49 133 51 133 53 133 55 133 57 133 59 133 61 133 63 133 65 133 67 133 69 133 71 133 73 133 75 133 77 133 79 133 81 133 83 133 85 133 87 133 89 133 91 133 93 133 95 133 97 133 99 133 101 133 103 133 105 133 107 133 109 133 111 133 113 133 115 133 117 133 119 133 121 133 123 133 125 133 127 133 129 133 131 133 133 133 135 133 137 133 139 133 141 133 143 133 145 133 147 133 149 133 151 133 153 133 155 133 157 133 159 133 161 133 163 133 165 133 167 133 169 133 171 133 173 133 175 133 177 133 179 133 181 133 183 133 185 133 187 133 189 133 191 
133 1 133 3 133 5 133 7 133 9 133 11 133 13 133 15 133 17 133 19 133 21 133 23 133 25 133 27 133 29 133 31 133 33 133 35 133 37 133 39 133 41 133 43 133 45 133 47 133 49 133 51 133 53 133 55 133 57 133 59 133 61 133 63 133 65 133 67 133 69 133 71 133 73 133 75 133 77 133 79 133 81 133 83 133 85 133 87 133 89 133 91 133 93 133 95 133 97 133 99 133 101 133 103 133 105 133 107 133 109 133 111 133 113 133 115 133 117 133 119 133 121 133 123 133 125 133 127 133 129 133 131 133 133 133 135 133 137 133 139 133 141 133 143 133 145 133 147 133 149 133 151 133 153 133 155 133 157 133 159 133 161 133 163 133 165 133 167 133 169 133 171 133 173 133 175 133 177 133 179 133 181 133 183 133 185 133 187 133 189 133 191 
133 1 133 3 133 5 133 7 133 9 133 11 133 13 133 15 133 17 133 19 133 21 133 23 133 25 133 27 133 29 133 31 133 33 133 35 133 37 133 39 133 41 133 43 133 45 133 47 133 49 133 51 133 53 133 55 133 57 133 59 133 61 133 63 133 65 133 67 133 69 133 71 133 73 133 75 133 77 133 79 133 81 133 83 133 85 133 87 133 89 133 91 133 93 133 95 133 97 133 99 133 101 133 103 133 105 133 107 133 109 133 111 133 113 133 115 133 117 133 119 133 121 133 123 133 125 133 127 133 129 133 131 133 133 133 135 133 137 133 139 133 141 133 143 133 145 133 147 133 149 133 151 133 153 133 155 133 157 133 159 133 161 133 163 133 165 133 167 133 169 133 171 133 173 133 175 133 177 133 179 133 181 133 183 133 185 133 187 133 189 133 191 
133 1 133 3 133 5 133 7 133 9 133 11 133 13 133 15 133 17 133 19 133 21 133 23 133 25 133 27 133 29 133 31 133 33 133 35 133 37 133 39 133 41 133 43 133 45 133 47 133 49 133 51 133 53 133 55 133 57 133 59 133 61 133 63 133 65 133 67 133 69 133 71 133 73 133 75 133 77 133 79 133 81 133 83 133 85 133 87 133 89 133 91 133 93 133 95 133 97 133 99 133 101 133 103 133 105 133 107 133 109 133 111 133 113 133 115 133 117 133 119 133 121 133 123 133 125 133 127 133 129 133 131 133 133 133 135 133 137 133 139 133 141 133 143 133 145 133 147 133 149 133 151 133 153 133 155 133 157 133 159 133 161 133 163 133 165 133 167 133 169 133 171 133 173 133 175 133 177 133 179 133 181 133 183 133 185 133 187 133 189 133 191 
133 1 133 3 133 5 133 7 133 9 133 11 133 13 133 15 133 17 133 19 133 21 133 23 133 25 133 27 133 29 133 31 133 33 133 35 133 37 133 39 133 41 133 43 133 45 133 47 133 49 133 51 133 53 133 55 133 57 133 59 133 61 133 63 133 65 133 67 133 69 133 71 133 73 133 75 133 77 133 79 133 81 133 83 133 85 133 87 133 89 133 91 133 93 133 95 133 97 133 99 133 101 133 103 133 105 133 107 133 109 133 111 133 113 133 115 133 117 133 119 133 121 133 123 133 125 133 127 133 129 133 131 133 133 133 135 133 137 133 139 133 141 133 143 133 145 133 147 133 149 133 151 133 153 133 155 133 157 133 159 133 161 133 163 133 165 133 167 133 169 133 171 133 173 133 175 133 177 133 179 133 181 133 183 133 185 133 187 133 189 133 191 
133 1 133 3 133 5 133 7 133 9 133 11 133 13 133 15 133 17 133 19 133 21 133 23 133 25 133 27 133 29 133 31 133 33 133 35 133 37 133 39 133 41 133 43 133 45 133 47 133 49 133 51 133 53 133 55 133 57 133 59 133 61 133 63 133 65 133 67 133 69 133 71 133 73 133 75 133 77 133 79 133 81 133 83 133 85 133 87 133 89 133 91 133 93 133 95 133 97 133 99 133 101 133 103 133 105 133 107 133 109 133 111 133 113 133 115 133 117 133 119 133 121 133 123 133 125 133 127 133 129 133 131 133 133 133 135 133 137 133 139 133 141 133 143 133 145 133 147 133 149 133 151 133 153 133 155 133 157 133 159 133 161 133 163 133 165 133 167 133 169 133 171 133 173 133 175 133 177 133 179 133 181 133 183 133 185 133 187 133 189 133 191 
133 1 133 3 133 5 133 7 133 9 133 11 133 13 133 15 133 17 133 19 133 21 133 23 133 25 133 27 133 29 133 31 133 33 133 35 133 37 133 39 133 41 133 43 133 45 133 47 133 49 133 51 133 53 133 55 133 57 133 59 133 61 133 63 133 65 133 67 133 69 133 71 133 73 133 75 133 77 133 79 133 81 133 83 133 85 133 87 133 89 133 91 133 93 133 95 133 97 133 99 133 101 133 103 133 105 133 107 133 109 133 111 133 113 133 115 133 117 133 119 133 121 133 123 133 125 133 127 133 129 133 131 133 133 133 135 133 137 133 139 133 141 133 143 133 145 133 147 133 149 133 151 133 153 133 155 133 157 133 159 133 161 133 163 133 165 133 167 133 169 133 171 133 173 133 175 133 177 133 179 133 181 133 183 133 185 133 187 133 189 133 191 
133 1 133 3 133 5 133 7 133 9 133 11 133 13 133 15 133 17 133 19 133 21 133 23 133 25 133 27 133 29 133 31 133 33 133 35 133 37 133 39 133 41 133 43 133 45 133 47 133 49 133 51 133 53 133 55 133 57 133 59 133 61 133 63 133 65 133 67 133 69 133 71 133 73 133 75 133 77 133 79 133 81 133 83 133 85 133 87 133 89 133 91 133 93 133 95 133 97 133 99 133 101 133 103 133 105 133 107 133 109 133 111 133 113 133 115 133 117 133 119 133 121 133 123 133 125 133 127 133 129 133 131 133 133 133 135 133 137 133 139 133 141 133 143 133 145 133 147 133 149 133 151 133 153 133 155 133 157 133 159 133 161 133 163 133 165 133 167 133 169 133 171 133 173 133 175 133 177 133 179 133 181 133 183 133 185 133 187 133 189 133 191 
133 1 133 3 133 5 133 7 133 9 133 11 133 13 133 15 133 17 133 19 133 21 133 23 133 25 133 27 133 29 133 31 133 33 133 35 133 37 133 39 133 41 133 43 133 45 133 47 133 49 133 51 133 53 133 55 133 57 133 59 133 61 133 63 133 65 133 67 133 69 133 71 133 73 133 75 133 77 133 79 133 81 133 83 133 85 133 87 133 89 133 91 133 93 133 95 133 97 133 99 133 101 133 103 133 105 133 107 133 109 133 111 133 113 133 115 133 117 133 119 133 121 133 123 133 125 133 127 133 129 133 131 133 133 133 135 133 137 133 139 133 141 133 143 133 145 133 147 133 149 133 151 133 153 133 155 133 157 133 159 133 161 133 163 133 165 133 167 133 169 133 171 133 173 133 175 133 177 133 179 133 181 133 183 133 185 133 187 133 189 133 191 
133 1 133 3 133 5 133 7 133 9 133 11 133 13 133 15 133 17 133 19 133 21 133 23 133 25 133 27 133 29 133 31 133 33 133 35 133 37 133 39 133 41 133 43 133 45 133 47 133 49 133 51 133 53 133 55 133 57 133 59 133 61 133 63 133 65 133 67 133 69 133 71 133 73 133 75 133 77 133 79 133 81 133 83 133 85 133 87 133 89 133 91 133 93 133 95 133 97 133 99 133 101 133 103 133 105 133 107 133 109 133 111 133 113 133 115 133 117 133 119 133 121 133 123 133 125 133 127 133 129 133 131 133 133 133 135 133 137 133 139 133 141 133 143 133 145 133 147 133 149 133 151 133 153 133 155 133 157 133 159 133 161 133 163 133 165 133 167 133 169 133 171 133 173 133 175 133 177 133 179 133 181 133 183 133 185 133 187 133 189 133 191 
133 1 133 3 133 5 133 7 133 9 133 11 133 13 133 15 133 17 133 19 133 21 133 23 133 25 133 27 133 29 133 31 133 33 133 35 133 37 133 39 133 41 133 43 133 45 133 47 133 49 133 51 133 53 133 55 133 57 133 59 133 61 133 63 133 65 133 67 133 69 133 71 133 73 133 75 133 77 133 79 133 81 133 83 133 85 133 87 133 89 133 91 133 93 133 95 133 97 133 99 133 101 133 103 133 105 133 107 133 109 133 111 133 113 133 115 133 117 133 119 133 121 133 123 133 125 133 127 133 129 133 131 133 133 133 135 133 137 133 139 133 141 133 143 133 145 133 147 133 149 133 151 133 153 133 155 133 157 133 159 133 161 133 163 133 165 133 167 133 169 133 171 133 173 133 175 133 177 133 179 133 181 133 183 133 185 133 187 133 189 133 191 
133 1 133 3 133 5 133 7 133 9 133 11 133 13 133 15 133 17 133 19 133 21 133 23 133 25 133 27 133 29 133 31 133 33 133 35 133 37 133 39 133 41 133 43 133 45 133 47 133 49 133 51 133 53 133 55 133 57 133 59 133 61 133 63 133 65 133 67 133 69 133 71 133 73 133 75 133 77 133 79 133 81 133 83 133 85 133 87 133 89 133 91 133 93 133 95 133 97 133 99 133 101 133 103 133 105 133 107 133 109 133 111 133 113 133 115 133 117 133 119 133 121 133 123 133 125 133 127 133 129 133 131 133 133 133 135 133 137 133 139 133 141 133 143 133 145 133 147 133 149 133 151 133 153 133 155 133 157 133 159 133 161 133 163 133 165 133 167 133 169 133 171 133 173 133 175 133 177 133 179 133 181 133 183 133 185 133 187 133 189 133 191 
133 1 133 3 133 5 133 7 133 9 133 11 133 13 133 15 133 17 133 19 133 21 133 23 133 25 133 27 133 29 133 31 133 33 133 35 133 37 133 39 133 41 133 43 133 45 133 47 133 49 133 51 133 53 133 55 133 57 133 59 133 61 133 63 133 65 133 67 133 69 133 71 133 73 133 75 133 77 133 79 133 81 133 83 133 85 133 87 133 89 133 91 133 93 133 95 133 97 133 99 133 101 133 103 133 105 133 107 133 109 133 111 133 113 133 115 133 117 133 119 133 121 133 123 133 125 133 127 133 129 133 131 133 133 133 135 133 137 133 139 133 141 133 143 133 145 133 147 133 149 133 151 133 153 133 155 133 157 133 159 133 161 133 163 133 165 133 167 133 169 133 171 133 173 133 175 133 177 133 179 133 181 133 183 133 185 133 187 133 189 133 191 
133 1 133 3 133 5 133 7 133 9 133 11 133 13 133 15 133 17 133 19 133 21 133 23 133 25 133 27 133 29 133 31 133 33 133 35 133 37 133 39 133 41 133 43 133 45 133 47 133 49 133 51 133 53 133 55 133 57 133 59 133 61 133 63 133 65 133 67 133 69 133 71 133 73 133 75 133 77 133 79 133 81 133 83 133 85 133 87 133 89 133 91 133 93 133 95 133 97 133 99 133 101 133 103 133 105 133 107 133 109 133 111 133 113 133 115 133 117 133 119 133 121 133 123 133 125 133 127 133 129 133 131 133 133 133 135 133 137 133 139 133 141 133 143 133 145 133 147 133 149 133 151 133 153 133 155 133 157 133 159 133 161 133 163 133 165 133 167 133 169 133 171 133 173 133 175 133 177 133 179 133 181 133 183 133 185 133 187 133 189 133 191 
133 1 133 3 133 5 133 7 133 9 133 11 133 13 133 15 133 17 133 19 133 21 133 23 133 25 133 27 133 29 133 31 133 33 133 35 133 37 133 39 133 41 133 43 133 45 133 47 133 49 133 51 133 53 133 55 133 57 133 59 133 61 133 63 133 65 133 67 133 69 133 71 133 73 133 75 133 77 133 79 133 81 133 83 133 85 133 87 133 89 133 91 133 93 133 95 133 97 133 99 133 101 133 103 133 105 133 107 133 109 133 111 133 113 133 115 133 117 133 119 133 121 133 123 133 125 133 127 133 129 133 131 133 133 133 135 133 137 133 139 133 141 133 143 133 145 133 147 133 149 133 151 133 153 133 155 133 157 133 159 133 161 133 163 133 165 133 167 133 169 133 171 133 173 133 175 133 177 133 179 133 181 133 183 133 185 133 187 133 189 133 191 
133 1 133 3 133 5 133 7 133 9 133 11 133 13 133 15 133 17 133 19 133 21 133 23 133 25 133 27 133 29 133 31 133 33 133 35 133 37 133 39 133 41 133 43 133 45 133 47 133 49 133 51 133 53 133 55 133 57 133 59 133 61 133 63 133 65 133 67 133 69 133 71 133 73 133 75 133 77 133 79 133 81 133 83 133 85 133 87 133 89 133 91 133 93 133 95 133 97 133 99 133 101 133 103 133 105 133 107 133 109 133 111 133 113 133 115 133 117 133 119 133 121 133 123 133 125 133 127 133 129 133 131 133 133 133 135 133 137 133 139 133 141 133 143 133 145 133 147 133 149 133 151 133 153 133 155 133 157 133 159 133 161 133 163 133 165 133 167 133 169 133 171 133 173 133 175 133 177 133 179 133 181 133 183 133 185 133 187 133 189 133 191 
